<svg width="24" height="24" viewBox="0 0 24 24" fill="none" xmlns="http://www.w3.org/2000/svg">
<path d="M7.14776 9.29791C7.14776 8.97694 6.88762 8.7168 6.56665 8.7168H1.16229C0.841316 8.7168 0.581177 8.97694 0.581177 9.29791V14.7023C0.581177 15.0232 0.841316 15.2834 1.16229 15.2834H6.56665C6.88762 15.2834 7.14776 15.0232 7.14776 14.7023V9.29791ZM5.92742 14.063H1.7434V9.87902H5.92742V14.063Z" fill="url(#paint0_linear)"/>
<path d="M22.7989 11.3899H9.2785C8.95753 11.3899 8.69739 11.65 8.69739 11.971C8.69739 12.292 8.95753 12.5521 9.2785 12.5521H22.7989C23.1199 12.5521 23.3801 12.292 23.3801 11.971C23.3801 11.65 23.1199 11.3899 22.7989 11.3899Z" fill="url(#paint1_linear)"/>
<path d="M7.14776 0.581114C7.14776 0.260139 6.88762 0 6.56665 0H1.16229C0.841316 0 0.581177 0.260139 0.581177 0.581114V5.98547C0.581177 6.30644 0.841316 6.56658 1.16229 6.56658H6.56665C6.88762 6.56658 7.14776 6.30644 7.14776 5.98547V0.581114ZM5.92742 5.34625H1.7434V1.16223H5.92742V5.34625Z" fill="url(#paint2_linear)"/>
<path d="M22.7989 2.6731H9.2785C8.95753 2.6731 8.69739 2.93324 8.69739 3.25421C8.69739 3.57518 8.95753 3.83532 9.2785 3.83532H22.7989C23.1199 3.83532 23.3801 3.57518 23.3801 3.25421C23.3801 2.93324 23.1199 2.6731 22.7989 2.6731Z" fill="url(#paint3_linear)"/>
<path d="M7.14776 18.0145C7.14776 17.6935 6.88762 17.4333 6.56665 17.4333H1.16229C0.841316 17.4333 0.581177 17.6935 0.581177 18.0145V23.4188C0.581177 23.7398 0.841316 23.9999 1.16229 23.9999H6.56665C6.88762 23.9999 7.14776 23.7398 7.14776 23.4188V18.0145ZM5.92742 22.7796H1.7434V18.5956H5.92742V22.7796Z" fill="url(#paint4_linear)"/>
<path d="M22.7989 20.1067H9.2785C8.95753 20.1067 8.69739 20.3668 8.69739 20.6878C8.69739 21.0088 8.95753 21.2689 9.2785 21.2689H22.7989C23.1199 21.2689 23.3801 21.0088 23.3801 20.6878C23.3801 20.3668 23.1199 20.1067 22.7989 20.1067Z" fill="url(#paint5_linear)"/>
<defs>
<linearGradient id="paint0_linear" x1="3.86447" y1="-2.34122" x2="3.86447" y2="26.5028" gradientUnits="userSpaceOnUse">
<stop stop-color="#BBD1D9"/>
<stop offset="1" stop-color="#53889D"/>
</linearGradient>
<linearGradient id="paint1_linear" x1="16.0387" y1="-2.34119" x2="16.0387" y2="26.5027" gradientUnits="userSpaceOnUse">
<stop stop-color="#BBD1D9"/>
<stop offset="1" stop-color="#53889D"/>
</linearGradient>
<linearGradient id="paint2_linear" x1="3.86447" y1="-2.34131" x2="3.86447" y2="26.5027" gradientUnits="userSpaceOnUse">
<stop stop-color="#BBD1D9"/>
<stop offset="1" stop-color="#53889D"/>
</linearGradient>
<linearGradient id="paint3_linear" x1="16.0387" y1="-2.34134" x2="16.0387" y2="26.5027" gradientUnits="userSpaceOnUse">
<stop stop-color="#BBD1D9"/>
<stop offset="1" stop-color="#53889D"/>
</linearGradient>
<linearGradient id="paint4_linear" x1="3.86447" y1="-2.34137" x2="3.86447" y2="26.5026" gradientUnits="userSpaceOnUse">
<stop stop-color="#BBD1D9"/>
<stop offset="1" stop-color="#53889D"/>
</linearGradient>
<linearGradient id="paint5_linear" x1="16.0387" y1="-2.34116" x2="16.0387" y2="26.5028" gradientUnits="userSpaceOnUse">
<stop stop-color="#BBD1D9"/>
<stop offset="1" stop-color="#53889D"/>
</linearGradient>
</defs>
</svg>
