<svg width="20" height="20" viewBox="0 0 20 20" fill="none" xmlns="http://www.w3.org/2000/svg">
<g clip-path="url(#clip0)">
<path d="M12.7588 7.24588C12.5001 7.24588 12.2904 7.45555 12.2904 7.71426V16.5667C12.2904 16.8252 12.5001 17.0351 12.7588 17.0351C13.0175 17.0351 13.2272 16.8252 13.2272 16.5667V7.71426C13.2272 7.45555 13.0175 7.24588 12.7588 7.24588Z" fill="white"/>
<path d="M7.23187 7.24588C6.97316 7.24588 6.76349 7.45555 6.76349 7.71426V16.5667C6.76349 16.8252 6.97316 17.0351 7.23187 17.0351C7.49058 17.0351 7.70026 16.8252 7.70026 16.5667V7.71426C7.70026 7.45555 7.49058 7.24588 7.23187 7.24588Z" fill="white"/>
<path d="M16.3277 2.43525H13.9296V1.84978C13.9324 1.35743 13.7377 0.884652 13.3892 0.536841C13.0406 0.189213 12.5671 -0.00436035 12.0748 -0.000335187H7.9157C7.42335 -0.00436035 6.94984 0.189213 6.6013 0.536841C6.25276 0.884652 6.05808 1.35743 6.06083 1.84978V2.43525H3.66275C2.76404 2.43544 2.00493 3.10197 1.88857 3.99299C1.77238 4.8842 2.33517 5.72326 3.2037 5.95379V17.4938C3.2037 18.1758 3.45381 18.8164 3.89072 19.276C4.32562 19.7368 4.93086 19.9985 5.56427 19.9996H14.4262C15.0598 19.9985 15.665 19.7368 16.0998 19.276C16.5367 18.8164 16.7868 18.1758 16.7868 17.4938V5.95379C17.6553 5.72326 18.2181 4.8842 18.102 3.99299C17.9855 3.10197 17.2265 2.43544 16.3277 2.43525ZM6.9976 1.84978C6.99448 1.60589 7.09036 1.37114 7.26344 1.19898C7.43634 1.02681 7.67162 0.932219 7.9157 0.936427H12.0748C12.3189 0.932219 12.5541 1.02681 12.727 1.19898C12.9001 1.37097 12.996 1.60589 12.9929 1.84978V2.43525H6.9976V1.84978ZM14.4262 19.0628H5.56427C4.76345 19.0628 4.14046 18.3749 4.14046 17.4938V5.99496H15.85V17.4938C15.85 18.3749 15.227 19.0628 14.4262 19.0628ZM16.3277 5.05819H3.66275C3.19711 5.05819 2.81966 4.68074 2.81966 4.21511C2.81966 3.74947 3.19711 3.37202 3.66275 3.37202H16.3277C16.7934 3.37202 17.1708 3.74947 17.1708 4.21511C17.1708 4.68074 16.7934 5.05819 16.3277 5.05819Z" fill="white"/>
<path d="M9.99531 7.24609C9.73665 7.24609 9.52698 7.45577 9.52698 7.71448V16.5669C9.52698 16.8255 9.73665 17.0353 9.99531 17.0353C10.2541 17.0353 10.4637 16.8255 10.4637 16.5669V7.71448C10.4637 7.45577 10.2541 7.24609 9.99531 7.24609Z" fill="white"/>
</g>
<defs>
<clipPath id="clip0">
<rect width="20" height="20" fill="white"/>
</clipPath>
</defs>
</svg>
