<svg width="24" height="24" viewBox="0 0 24 24" fill="none" xmlns="http://www.w3.org/2000/svg">
<g clip-path="url(#clip0)">
<path d="M15.3105 8.69507C15 8.69507 14.7484 8.94668 14.7484 9.25713V19.8801C14.7484 20.1903 15 20.4421 15.3105 20.4421C15.6209 20.4421 15.8725 20.1903 15.8725 19.8801V9.25713C15.8725 8.94668 15.6209 8.69507 15.3105 8.69507Z" fill="url(#paint0_linear)"/>
<path d="M8.67815 8.69507C8.3677 8.69507 8.11609 8.94668 8.11609 9.25713V19.8801C8.11609 20.1903 8.3677 20.4421 8.67815 20.4421C8.9886 20.4421 9.24021 20.1903 9.24021 19.8801V9.25713C9.24021 8.94668 8.9886 8.69507 8.67815 8.69507Z" fill="url(#paint1_linear)"/>
<path d="M19.5932 2.92229H16.7155V2.21972C16.7188 1.6289 16.4852 1.06157 16.067 0.644197C15.6487 0.227044 15.0805 -0.00524463 14.4897 -0.000414431H9.49879C8.90797 -0.00524463 8.33976 0.227044 7.92151 0.644197C7.50326 1.06157 7.26965 1.6289 7.27295 2.21972V2.92229H4.39525C3.3168 2.92251 2.40587 3.72235 2.26623 4.79158C2.12681 5.86103 2.80216 6.8679 3.84439 7.14454V20.9925C3.84439 21.811 4.14452 22.5797 4.66881 23.1312C5.19069 23.6842 5.91698 23.9982 6.67708 23.9995H17.3114C18.0717 23.9982 18.798 23.6842 19.3197 23.1312C19.844 22.5797 20.1441 21.811 20.1441 20.9925V7.14454C21.1863 6.8679 21.8617 5.86103 21.7223 4.79158C21.5826 3.72235 20.6717 2.92251 19.5932 2.92229V2.92229ZM8.39707 2.21972C8.39333 1.92705 8.50838 1.64536 8.71608 1.43876C8.92356 1.23216 9.2059 1.11865 9.49879 1.1237H14.4897C14.7826 1.11865 15.0649 1.23216 15.2724 1.43876C15.4801 1.64515 15.5952 1.92705 15.5914 2.21972V2.92229H8.39707V2.21972ZM17.3114 22.8754H6.67708C5.71609 22.8754 4.9685 22.0499 4.9685 20.9925V7.19394H19.02V20.9925C19.02 22.0499 18.2724 22.8754 17.3114 22.8754ZM19.5932 6.06982H4.39525C3.83648 6.06982 3.38354 5.61688 3.38354 5.05812C3.38354 4.49935 3.83648 4.04641 4.39525 4.04641H19.5932C20.152 4.04641 20.6049 4.49935 20.6049 5.05812C20.6049 5.61688 20.152 6.06982 19.5932 6.06982Z" fill="url(#paint2_linear)"/>
<path d="M11.9943 8.69531C11.6839 8.69531 11.4323 8.94692 11.4323 9.25737V19.8803C11.4323 20.1906 11.6839 20.4424 11.9943 20.4424C12.3048 20.4424 12.5564 20.1906 12.5564 19.8803V9.25737C12.5564 8.94692 12.3048 8.69531 11.9943 8.69531Z" fill="url(#paint3_linear)"/>
</g>
<defs>
<linearGradient id="paint0_linear" x1="15.3105" y1="-1.87121" x2="15.3105" y2="26.0271" gradientUnits="userSpaceOnUse">
<stop stop-color="#BBD1D9"/>
<stop offset="1" stop-color="#53889D"/>
</linearGradient>
<linearGradient id="paint1_linear" x1="8.67816" y1="-1.87121" x2="8.67816" y2="26.0271" gradientUnits="userSpaceOnUse">
<stop stop-color="#BBD1D9"/>
<stop offset="1" stop-color="#53889D"/>
</linearGradient>
<linearGradient id="paint2_linear" x1="11.9943" y1="-1.87144" x2="11.9943" y2="26.0268" gradientUnits="userSpaceOnUse">
<stop stop-color="#BBD1D9"/>
<stop offset="1" stop-color="#53889D"/>
</linearGradient>
<linearGradient id="paint3_linear" x1="11.9943" y1="-1.87097" x2="11.9943" y2="26.0273" gradientUnits="userSpaceOnUse">
<stop stop-color="#BBD1D9"/>
<stop offset="1" stop-color="#53889D"/>
</linearGradient>
<clipPath id="clip0">
<rect width="24" height="24" fill="white"/>
</clipPath>
</defs>
</svg>
