<svg width="20" height="20" viewBox="0 0 20 20" fill="none" xmlns="http://www.w3.org/2000/svg">
<path d="M5.95647 7.74827C5.95647 7.48079 5.73968 7.26401 5.47221 7.26401H0.968575C0.701096 7.26401 0.484314 7.48079 0.484314 7.74827V12.2519C0.484314 12.5193 0.701096 12.7362 0.968575 12.7362H5.47221C5.73968 12.7362 5.95647 12.5193 5.95647 12.2519V7.74827ZM4.93952 11.7192H1.45283V8.23252H4.93952V11.7192Z" fill="#828282"/>
<path d="M18.9991 9.49155H7.73212C7.46465 9.49155 7.24786 9.7083 7.24786 9.9758C7.24786 10.2433 7.46465 10.46 7.73212 10.46H18.9991C19.2666 10.46 19.4835 10.2433 19.4835 9.9758C19.4835 9.7083 19.2666 9.49155 18.9991 9.49155Z" fill="#828282"/>
<path d="M5.95647 0.484262C5.95647 0.216782 5.73968 0 5.47221 0H0.968575C0.701096 0 0.484314 0.216782 0.484314 0.484262V4.98789C0.484314 5.25537 0.701096 5.47215 0.968575 5.47215H5.47221C5.73968 5.47215 5.95647 5.25537 5.95647 4.98789V0.484262ZM4.93952 4.45521H1.45283V0.968525H4.93952V4.45521Z" fill="#828282"/>
<path d="M18.9991 2.22757H7.73212C7.46465 2.22757 7.24786 2.44435 7.24786 2.71183C7.24786 2.9793 7.46465 3.19609 7.73212 3.19609H18.9991C19.2666 3.19609 19.4835 2.9793 19.4835 2.71183C19.4835 2.44435 19.2666 2.22757 18.9991 2.22757Z" fill="#828282"/>
<path d="M5.95647 15.0121C5.95647 14.7446 5.73968 14.5277 5.47221 14.5277H0.968575C0.701096 14.5277 0.484314 14.7446 0.484314 15.0121V19.5157C0.484314 19.7832 0.701096 19.9999 0.968575 19.9999H5.47221C5.73968 19.9999 5.95647 19.7832 5.95647 19.5157V15.0121ZM4.93952 18.983H1.45283V15.4963H4.93952V18.983Z" fill="#828282"/>
<path d="M18.9991 16.7556H7.73212C7.46465 16.7556 7.24786 16.9723 7.24786 17.2398C7.24786 17.5073 7.46465 17.7241 7.73212 17.7241H18.9991C19.2666 17.7241 19.4835 17.5073 19.4835 17.2398C19.4835 16.9723 19.2666 16.7556 18.9991 16.7556Z" fill="#828282"/>
</svg>
